<?xml version="1.0" encoding="UTF-8"?><svg id="a" xmlns="http://www.w3.org/2000/svg" viewBox="0 0 319.9997 320"><defs><style>.b{fill:#edf8ff;}.c{fill:#fd0;}.d{fill:#0d439b;}</style></defs><circle class="b" cx="160.6772" cy="160.2803" r="129.5197"/><path class="d" d="M17.3117,303.6504h0c-9.2769-9.277-9.277-24.3179-.0001-33.5949l30.1775-30.1779,33.595,33.595-30.1773,30.1776c-9.277,9.2771-24.318,9.2771-33.5951.0001Z"/><path class="c" d="M273.1904,46.8096c-62.4134-62.4129-163.9671-62.4129-226.3803.0004C-10.1774,103.7975-15.1317,193.4154,31.9474,256.0764c7.2337,9.6278,21.2797,10.6967,29.795,2.1813L273.1904,46.8096ZM80.4051,80.405c21.9447-21.9441,50.77-32.9164,79.5954-32.9164,21.2563,0,42.5172,5.969,61.0134,17.9023L65.391,221.0144c-28.1155-43.5808-23.1127-102.4825,15.0141-140.6093Z"/><path class="d" d="M273.1905,46.8097h0S46.8103,273.1899,46.8103,273.1899h0c31.2067,31.2068,72.198,46.8101,113.1898,46.8101,40.9918,0,81.9837-15.6034,113.1904-46.8101,62.4122-62.4134,62.4122-163.9668,0-226.3802ZM239.5944,239.595c-38.1245,38.1263-97.0256,43.1313-140.6082,15.0141L254.6096,98.9856c28.1155,43.5808,23.1116,102.4825-15.0152,140.6093Z"/><circle class="b" cx="160.6772" cy="160.2803" r="38.0085"/><path class="d" d="M160.6771,210.1431c-12.7747,0-25.5496-4.8628-35.2747-14.5879-19.4507-19.4507-19.4507-51.0991,0-70.5496,19.4502-19.4509,51.0989-19.4504,70.5496,0,19.4502,19.4504,19.4502,51.0989,0,70.5496-9.7256,9.7251-22.5,14.5879-35.2749,14.5879ZM160.6771,134.1619c-6.6914,0-13.3831,2.5471-18.4773,7.6411-10.1882,10.1885-10.1882,26.7664,0,36.9543,10.1885,10.1885,26.7659,10.1885,36.9543,0,10.1885-10.188,10.1885-26.7659,0-36.9543-5.0942-5.094-11.7856-7.6411-18.4771-7.6411Z"/></svg>